<svg xmlns="http://www.w3.org/2000/svg" xmlns:xlink="http://www.w3.org/1999/xlink" width="327" height="306" viewBox="0 0 327 306">
    <defs>
        <filter id="cyr1uib1ra" width="105%" height="105.4%" x="-1.9%" y="-1.3%" filterUnits="objectBoundingBox">
            <feOffset dx="2" dy="4" in="SourceAlpha" result="shadowOffsetOuter1"/>
            <feGaussianBlur in="shadowOffsetOuter1" result="shadowBlurOuter1" stdDeviation="2"/>
            <feColorMatrix in="shadowBlurOuter1" values="0 0 0 0 0 0 0 0 0 0 0 0 0 0 0 0 0 0 0.0595225087 0"/>
        </filter>
        <path id="zewz7q44xb" d="M120.55 57.535h-4.566V19.178H85.847c-1.01 0-1.827-.817-1.827-1.826V9.589C84.02 4.293 88.313 0 93.61 0h173.976l-.001 266.672h36.531c7.566 0 13.699 6.134 13.699 13.7v14.612c0 1.008-.818 1.826-1.826 1.826H1.827c-1.01 0-1.827-.818-1.827-1.826V280.37c0-7.565 6.133-13.699 13.699-13.699h234.708V68.024l-48.846-48.846H120.55v38.357zm127.857-38.357h-35.931l35.931 35.931V19.178z"/>
    </defs>
    <g fill="none" fill-rule="evenodd" transform="translate(2.53 .53)">
        <use fill="#000" filter="url(#cyr1uib1ra)" xlink:href="#zewz7q44xb"/>
        <use fill="#FFF" xlink:href="#zewz7q44xb"/>
    </g>
</svg>
