<svg xmlns="http://www.w3.org/2000/svg" xmlns:xlink="http://www.w3.org/1999/xlink" width="327" height="306" viewBox="0 0 327 306">
    <defs>
        <filter id="d98s31i7va" width="105%" height="105.4%" x="-1.9%" y="-1.3%" filterUnits="objectBoundingBox">
            <feOffset dx="2" dy="4" in="SourceAlpha" result="shadowOffsetOuter1"/>
            <feGaussianBlur in="shadowOffsetOuter1" result="shadowBlurOuter1" stdDeviation="2"/>
            <feColorMatrix in="shadowBlurOuter1" values="0 0 0 0 0 0 0 0 0 0 0 0 0 0 0 0 0 0 0.0595225087 0"/>
        </filter>
        <path id="2sl5xyugyb" d="M267.586 0l-.001 266.672h36.531c7.566 0 13.699 6.134 13.699 13.7v14.612c0 1.008-.818 1.826-1.826 1.826H1.827c-1.01 0-1.827-.818-1.827-1.826V280.37c0-7.565 6.133-13.699 13.699-13.699h234.708V68.024l-48.846-48.846H120.55v32.09c10.162 1.123 18.09 9.656 18.263 20.076l.003.347c0 8.947-5.718 16.558-13.7 19.38v9.354l31.592 31.593c.85.849.89 2.2.122 3.098l-.122.13c-.891.892-2.337.892-3.229 0l-28.363-28.363v59.33c0 1.01-.817 1.827-1.826 1.827h-6.64l-36.563 56.303c-1.099 1.692-3.361 2.173-5.053 1.074-1.692-1.099-2.173-3.361-1.074-5.053l37.457-57.681v-55.799l-28.362 28.363c-.891.891-2.337.891-3.229 0-.891-.892-.891-2.338 0-3.23l31.591-31.591V91.07c-7.877-2.785-13.55-10.236-13.695-19.032l-.003-.347c0-10.577 7.991-19.287 18.265-20.423v-32.09H85.847c-1.01 0-1.827-.817-1.827-1.826V9.589C84.02 4.293 88.313 0 93.61 0h173.976zm-19.179 19.178h-35.931l35.931 35.931V19.178z"/>
    </defs>
    <g fill="none" fill-rule="evenodd" transform="translate(2.53 .53)">
        <use fill="#000" filter="url(#d98s31i7va)" xlink:href="#2sl5xyugyb"/>
        <use fill="#FFF" xlink:href="#2sl5xyugyb"/>
    </g>
</svg>
